<svg width="80" height="80" viewBox="0 0 80 80" fill="none" xmlns="http://www.w3.org/2000/svg">
<g clip-path="url(#clip0_52_255)">
<path d="M32.5 35.3489H5.25272C6.51498 24.1298 15.9488 15.349 27.5 15.349H30.0001V10.349H27.5C12.3365 10.349 0 22.6855 0 37.849V67.849C0 69.2308 1.11809 70.349 2.50008 70.349H32.5C33.8818 70.349 35.0001 69.2309 35.0001 67.849V37.849C34.9999 36.4672 33.8818 35.3489 32.5 35.3489ZM29.9999 65.3491H4.99999V40.3489H29.9999V65.3491Z" fill="#EFEED9"/>
<path d="M79.0704 35.3489H51.823C53.0853 24.1298 62.5191 15.349 74.0704 15.349H76.5704V10.349H74.0704C58.9068 10.349 46.5703 22.6855 46.5703 37.849V67.849C46.5703 69.2308 47.6884 70.349 49.0704 70.349H79.0704C80.4522 70.349 81.5704 69.2309 81.5704 67.849V37.849C81.5704 36.4672 80.4523 35.3489 79.0704 35.3489ZM76.5704 65.3491H51.5705V40.3489H76.5704V65.3491Z" fill="#EFEED9"/>
</g>
<defs>
<clipPath id="clip0_52_255">
<rect width="80" height="80" fill="white"/>
</clipPath>
</defs>
</svg>
