<svg width="35" height="35" viewBox="0 0 35 35" fill="none" xmlns="http://www.w3.org/2000/svg">
<rect width="35" height="35" fill="#FAF9F5"/>
<g clip-path="url(#clip0_41_2349)">
<path d="M17.5026 13.6489C15.3757 13.6489 13.6538 15.3727 13.6538 17.4977C13.6538 19.6246 15.3776 21.3464 17.5026 21.3464C19.6294 21.3464 21.3513 19.6227 21.3513 17.4977C21.3513 15.3708 19.6276 13.6489 17.5026 13.6489ZM17.5026 19.9958C16.1219 19.9958 15.0044 18.8777 15.0044 17.4977C15.0044 16.1177 16.1226 14.9996 17.5026 14.9996C18.8826 14.9996 20.0007 16.1177 20.0007 17.4977C20.0013 18.8777 18.8832 19.9958 17.5026 19.9958Z" fill="#A6B03B"/>
<path d="M20.5924 10.0476C19.2124 9.98323 15.7943 9.98635 14.413 10.0476C13.1993 10.1045 12.1286 10.3976 11.2655 11.2607C9.82302 12.7032 10.0074 14.647 10.0074 17.4976C10.0074 20.4151 9.8449 22.3139 11.2655 23.7345C12.7136 25.182 14.6855 24.9926 17.5024 24.9926C20.3924 24.9926 21.3899 24.9945 22.4118 24.5989C23.8011 24.0595 24.8499 22.8176 24.9524 20.587C25.0174 19.2064 25.0136 15.7889 24.9524 14.4076C24.8286 11.7745 23.4155 10.1776 20.5924 10.0476ZM22.7768 22.7801C21.8311 23.7257 20.5193 23.6414 17.4843 23.6414C14.3593 23.6414 13.1061 23.6876 12.1918 22.7707C11.1386 21.7226 11.3293 20.0395 11.3293 17.4876C11.3293 14.0345 10.9749 11.5476 14.4405 11.3701C15.2368 11.342 15.4711 11.3326 17.4755 11.3326L17.5036 11.3514C20.8343 11.3514 23.4474 11.0026 23.6043 14.4676C23.6399 15.2582 23.648 15.4957 23.648 17.497C23.6474 20.5857 23.7061 21.8464 22.7768 22.7801Z" fill="#A6B03B"/>
<path d="M21.5039 14.3964C22.0006 14.3964 22.4032 13.9937 22.4032 13.497C22.4032 13.0003 22.0006 12.5977 21.5039 12.5977C21.0072 12.5977 20.6045 13.0003 20.6045 13.497C20.6045 13.9937 21.0072 14.3964 21.5039 14.3964Z" fill="#A6B03B"/>
</g>
<defs>
<clipPath id="clip0_41_2349">
<rect width="15" height="15" fill="white" transform="translate(10 10)"/>
</clipPath>
</defs>
</svg>
