<svg width="20" height="20" viewBox="0 0 20 20" fill="none" xmlns="http://www.w3.org/2000/svg">
<g clip-path="url(#clip0_41_2307)">
<path d="M19.987 16.4608C19.9234 15.9802 19.646 15.5658 19.2259 15.3239L14.2918 12.4831C13.6875 12.1351 12.9209 12.2364 12.4276 12.7297L11.4558 13.7015C11.1972 13.9602 10.788 13.9831 10.5043 13.7547C9.7381 13.1382 8.98373 12.4597 8.26214 11.7381C7.54056 11.0165 6.86208 10.2622 6.24555 9.49598C6.01717 9.21218 6.04002 8.80307 6.29872 8.54442L7.27054 7.57256C7.76375 7.07939 7.86517 6.31284 7.51715 5.70841L4.67629 0.774333C4.4344 0.354212 4.02006 0.0768087 3.53947 0.0132246C3.05883 -0.0504891 2.58657 0.10981 2.24377 0.452611L0.779388 1.91703C-0.242666 2.93913 -0.25908 4.80873 0.733169 7.18151C1.68728 9.46302 3.4678 11.9746 5.74668 14.2536C8.02565 16.5325 10.5372 18.313 12.8188 19.2671C13.9867 19.7555 15.0327 19.9996 15.9158 19.9995C16.8267 19.9995 17.5643 19.7398 18.0833 19.2208L19.5476 17.7564C19.8904 17.4136 20.0506 16.9414 19.987 16.4608ZM13.9686 13.0446L18.9026 15.8854C19.1466 16.0259 19.3078 16.2666 19.3447 16.5457C19.3757 16.78 19.3148 17.0106 19.1768 17.1965L12.6195 13.4541L12.8858 13.1878C13.1722 12.9014 13.6176 12.8425 13.9686 13.0446ZM3.45446 0.655588C3.73363 0.69252 3.97427 0.85364 4.11475 1.09765L6.9556 6.03172C7.15776 6.38278 7.09884 6.82804 6.81241 7.11443L6.56779 7.35904L2.80484 0.823403C2.95866 0.709496 3.14263 0.64764 3.33442 0.64764C3.3742 0.64764 3.41433 0.650275 3.45446 0.655588ZM17.625 18.7627C16.813 19.5747 15.1523 19.5406 13.0687 18.6693C10.8632 17.747 8.42559 16.016 6.2049 13.7954C3.98421 11.5747 2.25327 9.13706 1.33095 6.93153C0.459567 4.8479 0.425572 3.1872 1.23757 2.37517L2.32467 1.28802L6.09328 7.83355L5.84055 8.08629C5.34747 8.57941 5.30453 9.36004 5.74072 9.90223C6.37177 10.6865 7.06597 11.4583 7.80392 12.1963C8.54196 12.9343 9.31379 13.6285 10.098 14.2595C10.6401 14.6957 11.4207 14.6528 11.914 14.1596L12.1445 13.9291L18.711 17.6767L17.625 18.7627Z" fill="#A6B03B"/>
</g>
<defs>
<clipPath id="clip0_41_2307">
<rect width="20" height="20" fill="white"/>
</clipPath>
</defs>
</svg>
