<svg width="20" height="20" viewBox="0 0 20 20" fill="none" xmlns="http://www.w3.org/2000/svg">
<path d="M10.0001 0C6.09425 0 2.91675 3.1775 2.91675 7.08332C2.91675 10.8608 9.39257 19.47 9.66757 19.835C9.74675 19.9392 9.86925 20 10.0001 20C10.1309 20 10.2534 19.9392 10.3326 19.835C10.6076 19.47 17.0834 10.8608 17.0834 7.08332C17.0834 3.1775 13.9059 0 10.0001 0ZM10.0001 18.8825C8.66257 17.0525 3.75007 10.1233 3.75007 7.08332C3.75007 3.63664 6.55339 0.83332 10.0001 0.83332C13.4467 0.83332 16.2501 3.63664 16.2501 7.08332C16.2501 10.1217 11.3376 17.0517 10.0001 18.8825Z" fill="#A6B03B"/>
<path d="M10 3.3335C7.9325 3.3335 6.25 5.016 6.25 7.0835C6.25 9.151 7.9325 10.8335 10 10.8335C12.0675 10.8335 13.75 9.151 13.75 7.0835C13.75 5.016 12.0675 3.3335 10 3.3335ZM10 10.0002C8.39168 10.0002 7.08332 8.69186 7.08332 7.0835C7.08332 5.47518 8.39164 4.16682 10 4.16682C11.6084 4.16682 12.9167 5.47514 12.9167 7.0835C12.9167 8.69186 11.6083 10.0002 10 10.0002Z" fill="#A6B03B"/>
</svg>
