<svg width="182" height="47" viewBox="0 0 182 47" fill="none" xmlns="http://www.w3.org/2000/svg">
<path d="M71.5741 28.008V29H66.1501V28.008H68.4221V21.16C68.3048 21.32 68.0915 21.5013 67.7821 21.704C67.4728 21.9067 67.1368 22.0827 66.7741 22.232C66.4115 22.3707 66.0915 22.44 65.8141 22.44V21.384C66.0595 21.384 66.3261 21.3147 66.6141 21.176C66.9128 21.0373 67.1901 20.8773 67.4461 20.696C67.7128 20.504 67.9368 20.328 68.1181 20.168C68.2995 20.008 68.4008 19.9067 68.4221 19.864H69.5421V28.008H71.5741Z" fill="#424242"/>
<rect x="46" y="1" width="45" height="45" stroke="#E5E5E5"/>
<path d="M110.032 29C110.032 28.52 110.091 28.0347 110.208 27.544C110.336 27.0427 110.587 26.5627 110.96 26.104C111.344 25.6347 111.92 25.2027 112.688 24.808C112.997 24.648 113.317 24.4933 113.648 24.344C113.979 24.184 114.288 24.0133 114.576 23.832C114.864 23.64 115.099 23.4267 115.28 23.192C115.461 22.9467 115.552 22.6587 115.552 22.328C115.552 22.0613 115.472 21.8053 115.312 21.56C115.152 21.304 114.917 21.096 114.608 20.936C114.299 20.7653 113.909 20.68 113.44 20.68C112.992 20.68 112.592 20.76 112.24 20.92C111.899 21.08 111.611 21.2667 111.376 21.48C111.152 21.6827 110.981 21.848 110.864 21.976L110.176 21.224C110.24 21.16 110.363 21.048 110.544 20.888C110.725 20.7173 110.96 20.5413 111.248 20.36C111.547 20.1787 111.893 20.024 112.288 19.896C112.683 19.768 113.125 19.704 113.616 19.704C114.267 19.704 114.821 19.8213 115.28 20.056C115.749 20.2907 116.107 20.6 116.352 20.984C116.597 21.3573 116.72 21.768 116.72 22.216C116.72 22.6533 116.624 23.032 116.432 23.352C116.251 23.6613 116.011 23.9333 115.712 24.168C115.424 24.392 115.12 24.5893 114.8 24.76C114.491 24.92 114.208 25.0587 113.952 25.176C113.28 25.496 112.752 25.816 112.368 26.136C111.984 26.4453 111.701 26.7547 111.52 27.064C111.349 27.3733 111.232 27.688 111.168 28.008H116.896V29H110.032Z" fill="#424242"/>
<rect x="91" y="1" width="45" height="45" stroke="#E5E5E5"/>
<path d="M154 27.59L158.59 23L154 18.41L155.42 17L161.42 23L155.42 29L154 27.59Z" fill="#828282"/>
<rect x="136" y="1" width="45" height="45" stroke="#E5E5E5"/>
<path d="M28 27.59L23.41 23L28 18.41L26.58 17L20.58 23L26.58 29L28 27.59Z" fill="#BDBDBD"/>
<rect width="45" height="45" transform="matrix(-1 0 0 1 46 1)" stroke="#E5E5E5"/>
</svg>
