<svg width="15" height="15" viewBox="0 0 15 15" fill="none" xmlns="http://www.w3.org/2000/svg">
<path d="M7.50002 7.51904C3.5471 7.51904 0.331055 10.7351 0.331055 14.688C0.331055 14.8601 0.470704 14.9997 0.642759 14.9997C0.814814 14.9997 0.954463 14.8601 0.954463 14.688C0.954463 11.0786 3.89063 8.14242 7.50005 8.14242C11.1095 8.14242 14.0456 11.0786 14.0456 14.688C14.0456 14.8601 14.1853 14.9997 14.3573 14.9997C14.5294 14.9997 14.669 14.8601 14.669 14.688C14.669 10.7345 11.4529 7.51904 7.50002 7.51904Z" fill="#A6B03B"/>
<path d="M7.49992 0C5.60979 0 4.07129 1.53789 4.07129 3.42863C4.07129 5.31937 5.60982 6.85726 7.49992 6.85726C9.39002 6.85726 10.9286 5.31937 10.9286 3.42863C10.9286 1.53789 9.39005 0 7.49992 0ZM7.49992 6.23388C5.95329 6.23388 4.69467 4.97526 4.69467 3.42863C4.69467 1.882 5.95329 0.623379 7.49992 0.623379C9.04655 0.623379 10.3052 1.882 10.3052 3.42863C10.3052 4.97526 9.04655 6.23388 7.49992 6.23388Z" fill="#A6B03B"/>
</svg>
