<svg width="23" height="23" viewBox="0 0 23 23" fill="none" xmlns="http://www.w3.org/2000/svg">
<path d="M11.5 0C5.15901 0 0 5.15901 0 11.5C0 17.8409 5.15901 23 11.5 23C17.8409 23 23 17.8409 23 11.5C23 5.15901 17.841 0 11.5 0ZM11.5 22C5.70998 22 0.999984 17.29 0.999984 11.5C0.999984 5.70998 5.70998 0.999984 11.5 0.999984C17.29 0.999984 22 5.70998 22 11.5C22 17.29 17.29 22 11.5 22Z" fill="#FEE600"/>
<path d="M16.354 15.647L12 11.293V3.50002C12 3.22402 11.776 3 11.5 3C11.224 3 11 3.22402 11 3.50002V11.5C11 11.633 11.053 11.76 11.146 11.854L15.646 16.354C15.744 16.451 15.872 16.5 16 16.5C16.128 16.5 16.256 16.451 16.354 16.354C16.549 16.159 16.549 15.842 16.354 15.647Z" fill="#FEE600"/>
</svg>
